# File created by Blade
# Date/Time:  Tue Apr 07 21:36:59 2015
# Frame Rate: 120.000 fps
#------------------------------------------------------
:FULLY-SPECIFIED
:DEGREES
872
root -4.109649 33.074941 6.760112 553.365310 177.873253 -543.375105
Spine -13.649708 -7.204767 4.006791
Head 11.073195 -2.358315 -4.506606
LeftShoulder -23.230152 39.502627 16.359674
LeftArm 59.061943 -55.823135 -57.913848
LeftForeArm 12.056540 -0.000000 -1.625068
LeftHand 1.464398 -0.000000 3.018577
LeftHandThumb1 -26.253704 0.000000 33.147579
RightShoulder -6.849122 3.867939 -31.306875
RightArm 12.707109 14.930460 41.879836
RightForeArm -15.542109 -0.000000 2.360316
RightHand 1.290064 -0.000000 0.741435
RightHandThumb1 -24.326973 -0.000000 -32.862282
LeftUpLeg -7.731084 -4.257235 7.112253
LeftLeg -3.012881 -0.000000 0.000000
LeftFoot -5.746091 6.961657 -20.980029
LeftToeBase -11.815338 -0.000000 0.000000
RightUpLeg -6.364826 2.962899 2.385806
RightLeg -5.785409 -0.000000 0.000000
RightFoot -2.667611 -15.721281 7.165008
RightToeBase -7.081294 -0.000000 0.000000
873
root -4.119062 33.076512 6.761018 553.311912 177.903205 -543.355957
Spine -13.585151 -7.219831 3.966762
Head 10.978432 -2.294855 -4.474773
LeftShoulder -23.169727 39.498172 16.396878
LeftArm 58.998216 -55.729174 -57.882374
LeftForeArm 11.943085 -0.000000 -1.711068
LeftHand 1.482679 -0.000000 2.992247
LeftHandThumb1 -26.253704 0.000000 33.147579
RightShoulder -6.811212 3.923269 -31.294932
RightArm 12.708948 14.996640 41.969736
RightForeArm -15.526409 -0.000000 2.290968
RightHand 1.265519 -0.000000 1.015543
RightHandThumb1 -24.326973 -0.000000 -32.862282
LeftUpLeg -7.692659 -4.262532 7.098170
LeftLeg -2.972619 -0.000000 0.000000
LeftFoot -5.748842 6.988231 -20.932317
LeftToeBase -11.799212 -0.000000 0.000000
RightUpLeg -6.324991 3.032299 2.369718
RightLeg -5.748852 -0.000000 0.000000
RightFoot -2.673845 -15.741161 7.135148
RightToeBase -7.052224 -0.000000 0.000000
874
root -4.127299 33.077056 6.761813 553.266023 177.912416 -543.327586
Spine -13.532670 -7.263192 3.931124
Head 10.895856 -2.244161 -4.455376
LeftShoulder -23.140635 39.537054 16.411782
LeftArm 59.137080 -55.717620 -58.083307
LeftForeArm 12.027638 -0.000000 -1.800184
LeftHand 1.494721 -0.000000 2.964813
LeftHandThumb1 -26.253704 0.000000 33.147579
RightShoulder -6.769532 3.985336 -31.285281
RightArm 12.721308 15.019691 42.044345
RightForeArm -15.579981 -0.000000 2.209204
RightHand 1.224843 -0.000000 1.116208
RightHandThumb1 -24.326973 -0.000000 -32.862282
LeftUpLeg -7.657039 -4.326004 7.083738
LeftLeg -2.948041 -0.000000 0.000000
LeftFoot -5.778182 7.064857 -20.919564
LeftToeBase -11.735857 -0.000000 0.000000
RightUpLeg -6.287905 3.051080 2.348901
RightLeg -5.712180 -0.000000 0.000000
RightFoot -2.675831 -15.716024 7.113501
RightToeBase -7.141852 -0.000000 0.000000
875
root -4.136182 33.077003 6.762377 553.217406 177.908369 -543.299402
Spine -13.476446 -7.322404 3.890561
Head 10.817396 -2.183913 -4.398533
LeftShoulder -23.080864 39.506640 16.457600
LeftArm 59.106744 -55.688937 -58.099721
LeftForeArm 11.969468 -0.000000 -1.848933
LeftHand 1.371424 0.000000 2.998512
LeftHandThumb1 -26.253704 0.000000 33.147579
RightShoulder -6.721293 4.037733 -31.276158
RightArm 12.725962 15.024440 42.098194
RightForeArm -15.527835 -0.000000 2.137188
RightHand 1.151393 -0.000000 1.332246
RightHandThumb1 -24.326973 -0.000000 -32.862282
LeftUpLeg -7.625090 -4.362455 7.068479
LeftLeg -2.919694 -0.000000 0.000000
LeftFoot -5.784372 7.101028 -20.907174
LeftToeBase -11.739584 -0.000000 0.000000
RightUpLeg -6.237030 3.043453 2.334026
RightLeg -5.695058 -0.000000 0.000000
RightFoot -2.667168 -15.675578 7.070184
RightToeBase -7.198430 -0.000000 0.000000
876
root -4.145157 33.076078 6.764141 553.160234 177.884324 -543.263483
Spine -13.414072 -7.401724 3.847663
Head 10.748345 -2.165081 -4.350395
LeftShoulder -23.035993 39.502999 16.485741
LeftArm 59.092955 -55.694050 -58.135874
LeftForeArm 12.020151 0.000000 -1.906530
LeftHand 1.499078 -0.000000 2.913113
LeftHandThumb1 -26.253704 0.000000 33.147579
RightShoulder -6.666388 4.063451 -31.265422
RightArm 12.734916 15.025411 42.133693
RightForeArm -15.472339 -0.000000 2.088815
RightHand 1.009611 -0.000000 1.428702
RightHandThumb1 -24.326973 -0.000000 -32.862282
LeftUpLeg -7.587734 -4.394980 7.044147
LeftLeg -2.886961 -0.000000 0.000000
LeftFoot -5.803613 7.113655 -20.909477
LeftToeBase -11.804199 -0.000000 0.000000
RightUpLeg -6.156282 3.054653 2.309678
RightLeg -5.705573 -0.000000 0.000000
RightFoot -2.679169 -15.662687 7.064044
RightToeBase -7.202839 -0.000000 0.000000
877
root -4.152836 33.074050 6.763972 553.125529 177.859907 -543.207548
Spine -13.363433 -7.489900 3.783140
Head 10.644786 -2.091452 -4.287805
LeftShoulder -23.033772 39.471089 16.500441
LeftArm 59.121775 -55.704471 -58.182818
LeftForeArm 12.130036 -0.000000 -1.964829
LeftHand 1.536156 -0.000000 2.913402
LeftHandThumb1 -26.253704 0.000000 33.147579
RightShoulder -6.619220 4.113264 -31.268691
RightArm 12.728421 14.982355 42.163400
RightForeArm -15.416639 -0.000000 2.029006
RightHand 0.928719 -0.000000 1.572915
RightHandThumb1 -24.326973 -0.000000 -32.862282
LeftUpLeg -7.574923 -4.419165 6.999728
LeftLeg -2.856189 -0.000000 0.000000
LeftFoot -5.813047 7.116329 -20.887961
LeftToeBase -11.836973 -0.000000 0.000000
RightUpLeg -6.095903 3.085528 2.256986
RightLeg -5.721115 -0.000000 0.000000
RightFoot -2.700919 -15.660413 7.049884
RightToeBase -7.211843 -0.000000 0.000000
878
root -4.161803 33.071170 6.763016 553.098294 177.834876 -543.159263
Spine -13.320923 -7.557717 3.716905
Head 10.550151 -2.068922 -4.213665
LeftShoulder -22.993036 39.429147 16.539005
LeftArm 59.080059 -55.717905 -58.156350
LeftForeArm 12.204268 -0.000000 -1.979384
LeftHand 1.465254 0.000000 2.902817
LeftHandThumb1 -26.253704 0.000000 33.147579
RightShoulder -6.595301 4.126163 -31.251952
RightArm 12.753065 14.974546 42.175782
RightForeArm -15.377346 -0.000000 1.973929
RightHand 0.856231 -0.000000 1.650948
RightHandThumb1 -24.326973 -0.000000 -32.862282
LeftUpLeg -7.566858 -4.437023 6.967058
LeftLeg -2.824724 -0.000000 0.000000
LeftFoot -5.803866 7.064770 -20.840561
LeftToeBase -11.827346 -0.000000 0.000000
RightUpLeg -6.039581 3.108230 2.217825
RightLeg -5.742293 -0.000000 0.000000
RightFoot -2.725649 -15.659048 7.045226
RightToeBase -7.169440 -0.000000 0.000000
879
root -4.170297 33.066717 6.762776 553.072221 177.795145 -543.107160
Spine -13.281340 -7.646376 3.647226
Head 10.464755 -2.033705 -4.131687
LeftShoulder -22.967085 39.381670 16.586127
LeftArm 58.980723 -55.715383 -58.077191
LeftForeArm 12.215608 -0.000000 -1.940952
LeftHand 1.337717 0.000000 2.868670
LeftHandThumb1 -26.253704 0.000000 33.147579
RightShoulder -6.555648 4.128664 -31.224004
RightArm 12.758854 15.008769 42.170494
RightForeArm -15.393038 -0.000000 1.954482
RightHand 0.794385 0.000000 1.683731
RightHandThumb1 -24.326973 -0.000000 -32.862282
LeftUpLeg -7.553497 -4.463581 6.935183
LeftLeg -2.811730 -0.000000 0.000000
LeftFoot -5.833037 7.019423 -20.871371
LeftToeBase -11.752921 -0.000000 0.000000
RightUpLeg -5.981430 3.112205 2.177167
RightLeg -5.773323 -0.000000 0.000000
RightFoot -2.777766 -15.644296 7.040488
RightToeBase -7.101019 -0.000000 0.000000
880
root -4.178956 33.061609 6.761233 553.060312 177.767174 -543.055881
Spine -13.249259 -7.703595 3.573856
Head 10.362946 -2.036151 -4.056323
LeftShoulder -22.940504 39.347420 16.615883
LeftArm 58.946805 -55.764158 -58.051509
LeftForeArm 12.249353 0.000000 -1.892049
LeftHand 1.232787 -0.000000 2.850839
LeftHandThumb1 -26.253704 0.000000 33.147579
RightShoulder -6.547816 4.118963 -31.206075
RightArm 12.768277 15.042874 42.164311
RightForeArm -15.414287 -0.000000 1.965440
RightHand 0.745978 0.000000 1.676515
RightHandThumb1 -24.326973 -0.000000 -32.862282
LeftUpLeg -7.546557 -4.485515 6.911273
LeftLeg -2.820154 -0.000000 0.000000
LeftFoot -5.853288 6.986349 -20.953361
LeftToeBase -11.710548 -0.000000 0.000000
RightUpLeg -5.939946 3.107144 2.139226
RightLeg -5.814546 -0.000000 0.000000
RightFoot -2.849130 -15.635458 7.069472
RightToeBase -6.995473 -0.000000 0.000000
881
root -4.187654 33.056175 6.759405 553.067500 177.751219 -543.006692
Spine -13.241396 -7.723613 3.496002
Head 10.280445 -2.054069 -3.993577
LeftShoulder -22.910195 39.332573 16.646581
LeftArm 58.956865 -55.811758 -58.043611
LeftForeArm 12.238094 -0.000000 -1.855446
LeftHand 1.214021 -0.000000 2.927487
LeftHandThumb1 -26.253704 0.000000 33.147579
RightShoulder -6.550315 4.138097 -31.188557
RightArm 12.735795 15.080570 42.141277
RightForeArm -15.480277 -0.000000 1.995779
RightHand 0.671449 -0.000000 1.645014
RightHandThumb1 -24.326973 -0.000000 -32.862282
LeftUpLeg -7.550356 -4.488128 6.886759
LeftLeg -2.830567 -0.000000 0.000000
LeftFoot -5.904563 6.931864 -21.067089
LeftToeBase -11.616539 -0.000000 0.000000
RightUpLeg -5.920325 3.088507 2.104189
RightLeg -5.852956 -0.000000 0.000000
RightFoot -2.905958 -15.594690 7.105172
RightToeBase -6.994804 -0.000000 0.000000
